<svg data-v-423bf9ae="" xmlns="http://www.w3.org/2000/svg" viewBox="0 0 335.8780647859029 60" class="font"><!----><defs data-v-423bf9ae=""><linearGradient data-v-423bf9ae="" gradientTransform="rotate(25)" id="f98db174-133d-43ba-b63f-a6e72b1ae0b5" x1="0%" y1="0%" x2="100%" y2="0%"><stop data-v-423bf9ae="" offset="0%" style="stop-color: rgb(0, 21, 214); stop-opacity: 1;"></stop><stop data-v-423bf9ae="" offset="100%" style="stop-color: rgb(9, 137, 251); stop-opacity: 1;"></stop></linearGradient></defs><!----><g data-v-423bf9ae="" id="61c1ae0c-b973-4d6c-850e-89adf49350d3" fill="#ffffff" transform="matrix(4.354136212645278,0,0,4.354136212645278,-3.0043555047073767,-12.670537467772007)"><path d="M0.69 9.94C0.69 12.28 1.83 13.47 3.93 13.47C4.91 13.47 6.23 12.95 6.62 11.45L6.22 11.26C5.78 12.24 5.22 12.74 4.20 12.74C2.53 12.74 2.14 11.00 2.14 9.69C2.14 7.60 2.97 6.76 3.93 6.76C4.58 6.76 4.98 7.22 5.26 7.98C5.35 8.20 5.43 8.34 5.70 8.34C5.98 8.34 6.52 8.16 6.52 7.63C6.52 6.99 5.60 6.27 4.09 6.27C1.54 6.27 0.69 8.08 0.69 9.94ZM7.63 9.87C7.63 12.14 8.74 13.47 10.99 13.47C13.24 13.47 14.35 12.14 14.35 9.87C14.35 7.60 13.24 6.27 10.99 6.27C8.74 6.27 7.63 7.60 7.63 9.87ZM9.09 9.87C9.09 7.94 9.70 6.76 10.99 6.76C12.28 6.76 12.89 7.94 12.89 9.87C12.89 11.80 12.28 12.98 10.99 12.98C9.70 12.98 9.09 11.80 9.09 9.87ZM15.71 10.01C15.71 12.08 16.79 13.47 18.63 13.47C19.39 13.47 20.05 13.13 20.80 12.52L20.80 13.20L20.92 13.30L23.18 13.30L23.18 12.89C22.19 12.82 22.13 12.80 22.13 12.08L22.13 3.00L22.04 2.91L19.84 3.26L19.84 3.61L20.37 3.67C20.73 3.71 20.82 3.78 20.82 4.31L20.82 6.61C20.43 6.40 19.91 6.27 19.26 6.27C18.12 6.27 17.26 6.64 16.67 7.24C16.07 7.87 15.71 8.79 15.71 10.01ZM17.16 9.84C17.16 8.02 17.82 6.76 19.25 6.76C19.91 6.76 20.44 7.07 20.69 7.64C20.80 7.88 20.82 8.08 20.82 8.46L20.82 10.92C20.82 11.23 20.80 11.47 20.72 11.70C20.44 12.43 19.82 12.71 19.10 12.71C17.81 12.71 17.16 11.45 17.16 9.84ZM24.08 9.93C24.08 12.14 25.03 13.47 27.31 13.47C28.87 13.47 29.67 12.60 30.04 11.49L29.62 11.27C29.23 12.08 28.70 12.75 27.59 12.75C25.86 12.75 25.51 11.07 25.54 9.62L29.57 9.62C29.86 9.62 30.13 9.55 30.13 9.09C30.13 8.26 29.86 6.27 27.30 6.27C25.12 6.27 24.08 7.83 24.08 9.93ZM25.55 9.09C25.55 8.51 25.76 6.76 27.22 6.76C28.52 6.76 28.67 8.09 28.67 8.64C28.67 8.90 28.59 9.09 28.20 9.09ZM30.87 3.61L31.40 3.67C31.77 3.71 31.85 3.78 31.85 4.31L31.85 13.36L32.10 13.47L32.66 12.92C33.15 13.20 33.74 13.47 34.79 13.47C36.65 13.47 38.28 12.57 38.28 9.72C38.28 8.85 38.09 6.27 35.57 6.27C34.51 6.27 33.68 6.96 33.17 7.27L33.17 3.00L33.07 2.91L30.87 3.26ZM33.17 11.02L33.17 8.81C33.17 8.46 33.19 8.23 33.31 8.01C33.64 7.34 34.23 7.03 35.01 7.03C35.59 7.03 36.82 7.36 36.82 9.80C36.82 11.86 36.19 12.98 34.80 12.98C34.06 12.98 33.52 12.60 33.26 11.90C33.18 11.65 33.17 11.35 33.17 11.02ZM38.54 6.85C39.21 6.87 39.35 6.96 39.61 7.57C40.31 9.25 41.47 12.24 41.80 13.20C41.89 13.44 41.92 13.65 41.92 13.89C41.92 14.21 41.79 14.63 41.58 15.08C41.37 15.54 41.12 15.67 40.96 15.67C40.82 15.67 40.70 15.62 40.45 15.37C40.31 15.25 40.19 15.18 40.03 15.18C39.76 15.18 39.41 15.55 39.41 15.96C39.41 16.30 39.80 16.69 40.39 16.69C40.95 16.69 41.66 16.52 42.38 14.45C43.25 11.96 44.53 8.54 44.97 7.56C45.22 7.00 45.30 6.89 46.00 6.85L46.00 6.44L43.32 6.44L43.32 6.85L44.04 6.92C44.28 6.94 44.31 7.11 44.24 7.39C44.03 8.23 43.30 10.35 42.69 12.03L42.66 12.03C42.01 10.33 41.45 8.81 40.94 7.34C40.85 7.08 40.82 6.93 41.15 6.90L41.75 6.85L41.75 6.44L38.54 6.44ZM45.99 13.30L49.39 13.30L49.39 12.89C48.43 12.82 48.34 12.77 48.34 12.08L48.34 8.81C48.34 8.46 48.36 8.26 48.47 8.05C48.76 7.49 49.41 7.03 50.15 7.03C51.10 7.03 51.62 7.56 51.62 8.78L51.62 12.08C51.62 12.77 51.55 12.82 50.57 12.89L50.57 13.30L53.98 13.30L53.98 12.89C53.02 12.82 52.93 12.77 52.93 12.08L52.93 8.50C52.93 7.08 52.16 6.27 50.86 6.27C49.84 6.27 49.21 6.75 48.33 7.34L48.33 3.00L48.23 2.91L46.05 3.26L46.05 3.61L46.58 3.68C46.94 3.74 47.03 3.81 47.03 4.31L47.03 12.08C47.03 12.77 46.97 12.82 45.99 12.89ZM54.88 9.93C54.88 12.14 55.83 13.47 58.11 13.47C59.67 13.47 60.47 12.60 60.84 11.49L60.42 11.27C60.03 12.08 59.50 12.75 58.39 12.75C56.66 12.75 56.31 11.07 56.34 9.62L60.37 9.62C60.66 9.62 60.93 9.55 60.93 9.09C60.93 8.26 60.66 6.27 58.10 6.27C55.92 6.27 54.88 7.83 54.88 9.93ZM56.35 9.09C56.35 8.51 56.56 6.76 58.02 6.76C59.32 6.76 59.47 8.09 59.47 8.64C59.47 8.90 59.39 9.09 59.00 9.09ZM61.84 13.30L65.25 13.30L65.25 12.89C64.26 12.82 64.20 12.80 64.20 12.08L64.20 8.81C64.20 8.46 64.23 8.26 64.34 8.04C64.64 7.49 65.27 7.03 66.01 7.03C66.96 7.03 67.48 7.56 67.48 8.78L67.48 12.08C67.48 12.80 67.44 12.82 66.43 12.89L66.43 13.30L69.85 13.30L69.85 12.89C68.85 12.82 68.80 12.80 68.80 12.08L68.80 8.50C68.80 7.08 68.03 6.27 66.74 6.27C65.70 6.27 65.06 6.78 64.19 7.34L63.99 6.27L61.91 6.62L61.91 6.97L62.44 7.04C62.80 7.10 62.89 7.17 62.89 7.67L62.89 12.08C62.89 12.80 62.85 12.82 61.84 12.89ZM71.34 4.14C71.34 4.65 71.69 5.00 72.20 5.00C72.70 5.00 73.05 4.65 73.05 4.14C73.05 3.64 72.70 3.29 72.20 3.29C71.69 3.29 71.34 3.64 71.34 4.14ZM70.50 13.30L73.92 13.30L73.92 12.89C72.93 12.82 72.87 12.80 72.87 12.08L72.87 6.36L72.77 6.27L70.57 6.62L70.57 6.97L71.11 7.04C71.47 7.10 71.55 7.17 71.55 7.67L71.55 12.08C71.55 12.80 71.51 12.82 70.50 12.89ZM74.41 13.30L77.83 13.30L77.83 12.89C76.83 12.82 76.78 12.80 76.78 12.08L76.78 3.00L76.68 2.91L74.48 3.26L74.48 3.61L75.01 3.67C75.38 3.71 75.46 3.78 75.46 4.31L75.46 12.08C75.46 12.80 75.42 12.82 74.41 12.89Z"></path></g><!----><!----></svg>